<svg width="12" height="11" viewBox="0 0 12 11" fill="none" xmlns="http://www.w3.org/2000/svg">
<path d="M2.31576 10.8334C1.94909 10.8334 1.6352 10.7028 1.37409 10.4417C1.11298 10.1806 0.982422 9.86669 0.982422 9.50002C0.982422 9.13335 1.11298 8.81947 1.37409 8.55835C1.6352 8.29724 1.94909 8.16669 2.31576 8.16669C2.68242 8.16669 2.99631 8.29724 3.25742 8.55835C3.51853 8.81947 3.64909 9.13335 3.64909 9.50002C3.64909 9.86669 3.51853 10.1806 3.25742 10.4417C2.99631 10.7028 2.68242 10.8334 2.31576 10.8334ZM6.31576 10.8334C5.94909 10.8334 5.6352 10.7028 5.37409 10.4417C5.11298 10.1806 4.98242 9.86669 4.98242 9.50002C4.98242 9.13335 5.11298 8.81947 5.37409 8.55835C5.6352 8.29724 5.94909 8.16669 6.31576 8.16669C6.68242 8.16669 6.99631 8.29724 7.25742 8.55835C7.51853 8.81947 7.64909 9.13335 7.64909 9.50002C7.64909 9.86669 7.51853 10.1806 7.25742 10.4417C6.99631 10.7028 6.68242 10.8334 6.31576 10.8334ZM10.3158 10.8334C9.94909 10.8334 9.6352 10.7028 9.37409 10.4417C9.11298 10.1806 8.98242 9.86669 8.98242 9.50002C8.98242 9.13335 9.11298 8.81947 9.37409 8.55835C9.6352 8.29724 9.94909 8.16669 10.3158 8.16669C10.6824 8.16669 10.9963 8.29724 11.2574 8.55835C11.5185 8.81947 11.6491 9.13335 11.6491 9.50002C11.6491 9.86669 11.5185 10.1806 11.2574 10.4417C10.9963 10.7028 10.6824 10.8334 10.3158 10.8334ZM2.31576 6.83335C1.94909 6.83335 1.6352 6.7028 1.37409 6.44169C1.11298 6.18058 0.982422 5.86669 0.982422 5.50002C0.982422 5.13335 1.11298 4.81947 1.37409 4.55835C1.6352 4.29724 1.94909 4.16669 2.31576 4.16669C2.68242 4.16669 2.99631 4.29724 3.25742 4.55835C3.51853 4.81947 3.64909 5.13335 3.64909 5.50002C3.64909 5.86669 3.51853 6.18058 3.25742 6.44169C2.99631 6.7028 2.68242 6.83335 2.31576 6.83335ZM6.31576 6.83335C5.94909 6.83335 5.6352 6.7028 5.37409 6.44169C5.11298 6.18058 4.98242 5.86669 4.98242 5.50002C4.98242 5.13335 5.11298 4.81947 5.37409 4.55835C5.6352 4.29724 5.94909 4.16669 6.31576 4.16669C6.68242 4.16669 6.99631 4.29724 7.25742 4.55835C7.51853 4.81947 7.64909 5.13335 7.64909 5.50002C7.64909 5.86669 7.51853 6.18058 7.25742 6.44169C6.99631 6.7028 6.68242 6.83335 6.31576 6.83335ZM10.3158 6.83335C9.94909 6.83335 9.6352 6.7028 9.37409 6.44169C9.11298 6.18058 8.98242 5.86669 8.98242 5.50002C8.98242 5.13335 9.11298 4.81947 9.37409 4.55835C9.6352 4.29724 9.94909 4.16669 10.3158 4.16669C10.6824 4.16669 10.9963 4.29724 11.2574 4.55835C11.5185 4.81947 11.6491 5.13335 11.6491 5.50002C11.6491 5.86669 11.5185 6.18058 11.2574 6.44169C10.9963 6.7028 10.6824 6.83335 10.3158 6.83335ZM2.31576 2.83335C1.94909 2.83335 1.6352 2.7028 1.37409 2.44169C1.11298 2.18058 0.982422 1.86669 0.982422 1.50002C0.982422 1.13335 1.11298 0.819465 1.37409 0.558354C1.6352 0.297243 1.94909 0.166687 2.31576 0.166687C2.68242 0.166687 2.99631 0.297243 3.25742 0.558354C3.51853 0.819465 3.64909 1.13335 3.64909 1.50002C3.64909 1.86669 3.51853 2.18058 3.25742 2.44169C2.99631 2.7028 2.68242 2.83335 2.31576 2.83335ZM6.31576 2.83335C5.94909 2.83335 5.6352 2.7028 5.37409 2.44169C5.11298 2.18058 4.98242 1.86669 4.98242 1.50002C4.98242 1.13335 5.11298 0.819465 5.37409 0.558354C5.6352 0.297243 5.94909 0.166687 6.31576 0.166687C6.68242 0.166687 6.99631 0.297243 7.25742 0.558354C7.51853 0.819465 7.64909 1.13335 7.64909 1.50002C7.64909 1.86669 7.51853 2.18058 7.25742 2.44169C6.99631 2.7028 6.68242 2.83335 6.31576 2.83335ZM10.3158 2.83335C9.94909 2.83335 9.6352 2.7028 9.37409 2.44169C9.11298 2.18058 8.98242 1.86669 8.98242 1.50002C8.98242 1.13335 9.11298 0.819465 9.37409 0.558354C9.6352 0.297243 9.94909 0.166687 10.3158 0.166687C10.6824 0.166687 10.9963 0.297243 11.2574 0.558354C11.5185 0.819465 11.6491 1.13335 11.6491 1.50002C11.6491 1.86669 11.5185 2.18058 11.2574 2.44169C10.9963 2.7028 10.6824 2.83335 10.3158 2.83335Z" fill="#393939"/>
</svg>
