<svg width="21" height="19" viewBox="0 0 21 19" fill="none" xmlns="http://www.w3.org/2000/svg">
<path d="M10.5 19L9.05 17.7C7.36667 16.1834 5.975 14.875 4.875 13.775C3.775 12.675 2.9 11.6875 2.25 10.8125C1.6 9.93752 1.14583 9.13336 0.8875 8.40002C0.629167 7.66669 0.5 6.91669 0.5 6.15002C0.5 4.58336 1.025 3.27502 2.075 2.22502C3.125 1.17502 4.43333 0.650024 6 0.650024C6.86667 0.650024 7.69167 0.833358 8.475 1.20002C9.25833 1.56669 9.93333 2.08336 10.5 2.75002C11.0667 2.08336 11.7417 1.56669 12.525 1.20002C13.3083 0.833358 14.1333 0.650024 15 0.650024C16.5667 0.650024 17.875 1.17502 18.925 2.22502C19.975 3.27502 20.5 4.58336 20.5 6.15002C20.5 6.91669 20.3708 7.66669 20.1125 8.40002C19.8542 9.13336 19.4 9.93752 18.75 10.8125C18.1 11.6875 17.225 12.675 16.125 13.775C15.025 14.875 13.6333 16.1834 11.95 17.7L10.5 19Z" fill="#1C1B1F"/>
</svg>
