<svg width="40" height="40" viewBox="0 0 40 40" fill="none" xmlns="http://www.w3.org/2000/svg">
<g clip-path="url(#clip0_164_33)">
<circle cx="19.6856" cy="19.6856" r="19.6856" fill="#191919"/>
<path d="M23.4536 19.6856C23.4536 21.7667 21.7667 23.4536 19.6857 23.4536C17.6047 23.4536 15.9177 21.7667 15.9177 19.6856C15.9177 17.6046 17.6047 15.9177 19.6857 15.9177C21.7667 15.9177 23.4536 17.6046 23.4536 19.6856Z" fill="#F4F4F4"/>
<path d="M28.4977 13.019C28.3165 12.5282 28.0276 12.0839 27.6521 11.7193C27.2874 11.3438 26.8435 11.0548 26.3524 10.8737C25.9541 10.719 25.3557 10.5349 24.2536 10.4847C23.0614 10.4304 22.704 10.4186 19.6857 10.4186C16.6672 10.4186 16.3098 10.4301 15.1179 10.4844C14.0158 10.5349 13.4171 10.719 13.0191 10.8737C12.528 11.0548 12.0838 11.3438 11.7194 11.7193C11.3439 12.0839 11.055 12.5279 10.8735 13.019C10.7188 13.4173 10.5347 14.016 10.4845 15.1181C10.4302 16.31 10.4185 16.6674 10.4185 19.6859C10.4185 22.7041 10.4302 23.0616 10.4845 24.2538C10.5347 25.3559 10.7188 25.9542 10.8735 26.3525C11.055 26.8437 11.3436 27.2876 11.7191 27.6523C12.0838 28.0278 12.5277 28.3167 13.0188 28.4978C13.4171 28.6528 14.0158 28.837 15.1179 28.8871C16.3098 28.9415 16.6669 28.9529 19.6854 28.9529C22.7043 28.9529 23.0617 28.9415 24.2533 28.8871C25.3554 28.837 25.9541 28.6528 26.3524 28.4978C27.3382 28.1176 28.1174 27.3384 28.4977 26.3525C28.6524 25.9542 28.8365 25.3559 28.887 24.2538C28.9413 23.0616 28.9527 22.7041 28.9527 19.6859C28.9527 16.6674 28.9413 16.31 28.887 15.1181C28.8368 14.016 28.6527 13.4173 28.4977 13.019ZM19.6857 25.4901C16.4798 25.4901 13.8809 22.8916 13.8809 19.6856C13.8809 16.4797 16.4798 13.8811 19.6857 13.8811C22.8914 13.8811 25.4903 16.4797 25.4903 19.6856C25.4903 22.8916 22.8914 25.4901 19.6857 25.4901ZM25.7198 15.0081C24.9706 15.0081 24.3632 14.4008 24.3632 13.6516C24.3632 12.9025 24.9706 12.2951 25.7198 12.2951C26.4689 12.2951 27.0763 12.9025 27.0763 13.6516C27.076 14.4008 26.4689 15.0081 25.7198 15.0081Z" fill="#F4F4F4"/>
<path d="M19.6856 0C8.81522 0 0 8.81522 0 19.6856C0 30.556 8.81522 39.3713 19.6856 39.3713C30.556 39.3713 39.3713 30.556 39.3713 19.6856C39.3713 8.81522 30.556 0 19.6856 0ZM30.9213 24.346C30.8666 25.5493 30.6753 26.3709 30.3959 27.09C29.8087 28.6084 28.6084 29.8087 27.09 30.3959C26.3712 30.6753 25.5493 30.8663 24.3463 30.9213C23.1409 30.9763 22.7558 30.9895 19.6859 30.9895C16.6158 30.9895 16.231 30.9763 15.0253 30.9213C13.8222 30.8663 13.0004 30.6753 12.2816 30.3959C11.527 30.1121 10.844 29.6672 10.2793 29.092C9.70434 28.5276 9.25948 27.8442 8.97562 27.09C8.69627 26.3712 8.50493 25.5493 8.45026 24.3463C8.39469 23.1406 8.38177 22.7555 8.38177 19.6856C8.38177 16.6158 8.39469 16.2307 8.44996 15.0253C8.50463 13.8219 8.69567 13.0004 8.97502 12.2813C9.25888 11.527 9.70404 10.8437 10.2793 10.2793C10.8437 9.70404 11.527 9.25918 12.2813 8.97532C13.0004 8.69597 13.8219 8.50493 15.0253 8.44996C16.2307 8.39499 16.6158 8.38177 19.6856 8.38177C22.7555 8.38177 23.1406 8.39499 24.346 8.45026C25.5493 8.50493 26.3709 8.69597 27.09 8.97502C27.8442 9.25888 28.5276 9.70404 29.0923 10.2793C29.6672 10.844 30.1124 11.527 30.3959 12.2813C30.6756 13.0004 30.8666 13.8219 30.9216 15.0253C30.9766 16.2307 30.9895 16.6158 30.9895 19.6856C30.9895 22.7555 30.9766 23.1406 30.9213 24.346Z" fill="#F4F4F4"/>
</g>
<defs>
<clipPath id="clip0_164_33">
<rect width="39.3713" height="39.3713" fill="white"/>
</clipPath>
</defs>
</svg>
