<svg width="18" height="19" viewBox="0 0 18 19" fill="none" xmlns="http://www.w3.org/2000/svg">
<path d="M13.1368 0.657837H5.17886C3.88907 0.657837 2.65209 1.17021 1.74007 2.08223C0.828044 2.99426 0.315674 4.23123 0.315674 5.52103V13.479C0.315674 14.7688 0.828044 16.0057 1.74007 16.9178C2.65209 17.8298 3.88907 18.3422 5.17886 18.3422H13.1368C14.4266 18.3422 15.6636 17.8298 16.5756 16.9178C17.4876 16.0057 18 14.7688 18 13.479V5.52103C18 4.23123 17.4876 2.99426 16.5756 2.08223C15.6636 1.17021 14.4266 0.657837 13.1368 0.657837ZM16.4526 12.7804C16.4526 13.8451 16.0297 14.8662 15.2768 15.619C14.524 16.3718 13.5029 16.7948 12.4383 16.7948H5.87739C4.81272 16.7948 3.79166 16.3718 3.03883 15.619C2.28599 14.8662 1.86305 13.8451 1.86305 12.7804V6.21956C1.86305 5.15489 2.28599 4.13382 3.03883 3.38099C3.79166 2.62815 4.81272 2.20522 5.87739 2.20522H12.4383C13.5029 2.20522 14.524 2.62815 15.2768 3.38099C16.0297 4.13382 16.4526 5.15489 16.4526 6.21956V12.7804Z" fill="white"/>
<path d="M12.383 6.30795L12.341 6.26595L12.3056 6.23058C11.4698 5.39767 10.3378 4.93023 9.15779 4.93079C8.56192 4.93484 7.97269 5.05625 7.42375 5.2881C6.87482 5.51994 6.37695 5.85767 5.95858 6.28199C5.54021 6.70631 5.20955 7.20891 4.98549 7.76106C4.76142 8.31321 4.64834 8.90411 4.65271 9.49997C4.65181 10.7093 5.12849 11.87 5.97903 12.7296C6.39565 13.1513 6.8921 13.4857 7.43939 13.7134C7.98668 13.9412 8.57386 14.0576 9.16664 14.0559C10.0558 14.0373 10.9203 13.7603 11.6548 13.2587C12.3892 12.7572 12.9618 12.0528 13.3028 11.2314C13.6438 10.41 13.7384 9.5071 13.5751 8.63287C13.4117 7.75864 12.9975 6.95083 12.383 6.30795ZM9.15779 12.4975C8.56323 12.5058 7.97962 12.3371 7.48119 12.0128C6.98276 11.6886 6.59203 11.2234 6.35871 10.6765C6.12538 10.1295 6.05999 9.52556 6.17087 8.94136C6.28174 8.35717 6.56386 7.81915 6.98134 7.39573C7.39883 6.97231 7.93282 6.68263 8.51539 6.56352C9.09796 6.44442 9.7028 6.50127 10.253 6.72686C10.8031 6.95245 11.2738 7.33657 11.6051 7.83037C11.9363 8.32418 12.1132 8.90535 12.1133 9.49997C12.1162 9.8909 12.042 10.2786 11.8951 10.6408C11.7481 11.0031 11.5312 11.3328 11.2567 11.6112C10.9822 11.8895 10.6556 12.1111 10.2954 12.2632C9.93529 12.4153 9.54872 12.4949 9.15779 12.4975Z" fill="white"/>
<path d="M15.0004 4.7208C15.0016 4.86265 14.9747 5.00333 14.9215 5.1348C14.8682 5.26627 14.7895 5.38594 14.6899 5.48696C14.5903 5.58799 14.4718 5.66837 14.3411 5.72353C14.2104 5.77868 14.0701 5.80752 13.9283 5.80839C13.7876 5.80832 13.6484 5.78035 13.5186 5.72609C13.3888 5.67182 13.2711 5.59235 13.1723 5.49228C13.0225 5.34033 12.9206 5.14778 12.8793 4.93848C12.838 4.72919 12.859 4.51236 12.9397 4.31488C13.0204 4.11741 13.1573 3.94797 13.3335 3.82758C13.5096 3.7072 13.7172 3.64115 13.9305 3.63763C14.1801 3.63759 14.4219 3.72521 14.6135 3.88521L14.6356 3.90732C14.6713 3.93634 14.7039 3.96893 14.7329 4.00458L14.7572 4.03111C14.9155 4.22605 15.0014 4.46973 15.0004 4.7208Z" fill="white"/>
</svg>
