<svg width="40" height="40" viewBox="0 0 40 40" fill="none" xmlns="http://www.w3.org/2000/svg">
<g clip-path="url(#clip0_164_69)">
<circle cx="19.7996" cy="19.6856" r="19.6856" fill="#191919"/>
<path d="M19.7996 0C8.92923 0 0.114014 8.81522 0.114014 19.6856C0.114014 30.556 8.92923 39.3713 19.7996 39.3713C30.6701 39.3713 39.4853 30.556 39.4853 19.6856C39.4853 8.81522 30.6701 0 19.7996 0ZM14.0792 29.7591H9.28488V15.3352H14.0792V29.7591ZM11.6822 13.3657H11.651C10.0421 13.3657 9.00162 12.2582 9.00162 10.874C9.00162 9.45863 10.074 8.38177 11.714 8.38177C13.3541 8.38177 14.3634 9.45863 14.3946 10.874C14.3946 12.2582 13.3541 13.3657 11.6822 13.3657ZM31.3666 29.7591H26.5729V22.0427C26.5729 20.1035 25.8787 18.7809 24.144 18.7809C22.8197 18.7809 22.0309 19.673 21.6842 20.5342C21.5575 20.8424 21.5265 21.2731 21.5265 21.7042V29.7591H16.7325C16.7325 29.7591 16.7953 16.6884 16.7325 15.3352H21.5265V17.3775C22.1636 16.3947 23.3036 14.9967 25.8472 14.9967C29.0014 14.9967 31.3666 17.0582 31.3666 21.4885V29.7591Z" fill="#F4F4F4"/>
</g>
<defs>
<clipPath id="clip0_164_69">
<rect width="39.3713" height="39.3713" fill="white" transform="translate(0.114014)"/>
</clipPath>
</defs>
</svg>
