<svg width="4" height="10" viewBox="0 0 4 10" fill="none" xmlns="http://www.w3.org/2000/svg">
<path d="M2.00016 9.66665C1.67933 9.66665 1.40468 9.55241 1.1762 9.32394C0.947732 9.09547 0.833496 8.82081 0.833496 8.49998C0.833496 8.17915 0.947732 7.90449 1.1762 7.67602C1.40468 7.44755 1.67933 7.33331 2.00016 7.33331C2.321 7.33331 2.59565 7.44755 2.82412 7.67602C3.05259 7.90449 3.16683 8.17915 3.16683 8.49998C3.16683 8.82081 3.05259 9.09547 2.82412 9.32394C2.59565 9.55241 2.321 9.66665 2.00016 9.66665ZM2.00016 6.16665C1.67933 6.16665 1.40468 6.05241 1.1762 5.82394C0.947732 5.59547 0.833496 5.32081 0.833496 4.99998C0.833496 4.67915 0.947732 4.40449 1.1762 4.17602C1.40468 3.94755 1.67933 3.83331 2.00016 3.83331C2.321 3.83331 2.59565 3.94755 2.82412 4.17602C3.05259 4.40449 3.16683 4.67915 3.16683 4.99998C3.16683 5.32081 3.05259 5.59547 2.82412 5.82394C2.59565 6.05241 2.321 6.16665 2.00016 6.16665ZM2.00016 2.66665C1.67933 2.66665 1.40468 2.55241 1.1762 2.32394C0.947732 2.09547 0.833496 1.82081 0.833496 1.49998C0.833496 1.17915 0.947732 0.904494 1.1762 0.676021C1.40468 0.447549 1.67933 0.333313 2.00016 0.333313C2.321 0.333313 2.59565 0.447549 2.82412 0.676021C3.05259 0.904494 3.16683 1.17915 3.16683 1.49998C3.16683 1.82081 3.05259 2.09547 2.82412 2.32394C2.59565 2.55241 2.321 2.66665 2.00016 2.66665Z" fill="#1C1B1F"/>
</svg>
