<svg width="11" height="12" viewBox="0 0 11 12" fill="none" xmlns="http://www.w3.org/2000/svg">
<path d="M4.99992 11.8334C4.67909 11.8334 4.40443 11.7191 4.17596 11.4906C3.94749 11.2622 3.83325 10.9875 3.83325 10.6667H6.16659C6.16659 10.9875 6.05235 11.2622 5.82388 11.4906C5.59541 11.7191 5.32075 11.8334 4.99992 11.8334ZM0.333252 10.0834V8.91669H1.49992V4.83335C1.49992 4.02641 1.74297 3.3094 2.22909 2.68231C2.7152 2.05523 3.34714 1.64446 4.12492 1.45002V1.04169C4.12492 0.798631 4.20999 0.592034 4.38013 0.421895C4.55027 0.251756 4.75686 0.166687 4.99992 0.166687C5.24297 0.166687 5.44957 0.251756 5.61971 0.421895C5.78985 0.592034 5.87492 0.798631 5.87492 1.04169V1.23127C5.76797 1.44516 5.6902 1.66391 5.64159 1.88752C5.59297 2.11113 5.57353 2.3396 5.58325 2.57294C5.48603 2.55349 5.39124 2.53648 5.29888 2.5219C5.20652 2.50731 5.10686 2.50002 4.99992 2.50002C4.35825 2.50002 3.80895 2.72849 3.352 3.18544C2.89506 3.64238 2.66659 4.19169 2.66659 4.83335V8.91669H7.33325V5.16877C7.50825 5.24655 7.69541 5.30731 7.89471 5.35106C8.09402 5.39481 8.29575 5.41669 8.49992 5.41669V8.91669H9.66659V10.0834H0.333252ZM8.49992 4.25002C8.01381 4.25002 7.60061 4.07988 7.26034 3.7396C6.92006 3.39933 6.74992 2.98613 6.74992 2.50002C6.74992 2.01391 6.92006 1.60071 7.26034 1.26044C7.60061 0.920159 8.01381 0.75002 8.49992 0.75002C8.98603 0.75002 9.39923 0.920159 9.7395 1.26044C10.0798 1.60071 10.2499 2.01391 10.2499 2.50002C10.2499 2.98613 10.0798 3.39933 9.7395 3.7396C9.39923 4.07988 8.98603 4.25002 8.49992 4.25002Z" fill="#1C1B1F"/>
</svg>
