<svg width="21" height="20" viewBox="0 0 21 20" fill="none" xmlns="http://www.w3.org/2000/svg">
<path d="M11.5 12V9H8.5V7H11.5V4H13.5V7H16.5V9H13.5V12H11.5ZM2.5 20C1.95 20 1.47917 19.8042 1.0875 19.4125C0.695833 19.0208 0.5 18.55 0.5 18V6C0.5 5.45 0.695833 4.97917 1.0875 4.5875C1.47917 4.19583 1.95 4 2.5 4H4.5V2C4.5 1.45 4.69583 0.979167 5.0875 0.5875C5.47917 0.195833 5.95 0 6.5 0H18.5C19.05 0 19.5208 0.195833 19.9125 0.5875C20.3042 0.979167 20.5 1.45 20.5 2V14C20.5 14.55 20.3042 15.0208 19.9125 15.4125C19.5208 15.8042 19.05 16 18.5 16H16.5V18C16.5 18.55 16.3042 19.0208 15.9125 19.4125C15.5208 19.8042 15.05 20 14.5 20H2.5ZM6.5 14H18.5V2H6.5V14Z" fill="#1C1B1F"/>
</svg>
