<svg width="40" height="40" viewBox="0 0 40 40" fill="none" xmlns="http://www.w3.org/2000/svg">
<g clip-path="url(#clip0_164_82)">
<circle cx="20.1806" cy="19.6952" r="19.6952" fill="#191919"/>
<path d="M20.171 0C9.30057 0 0.485352 8.81522 0.485352 19.6856C0.485352 30.556 9.30057 39.3713 20.171 39.3713C31.0414 39.3713 39.8566 30.556 39.8566 19.6856C39.8566 8.81522 31.0414 0 20.171 0ZM31.9606 26.0416C31.8188 26.3721 31.1814 26.8416 28.952 27.1858C28.7693 27.2137 28.6987 27.4513 28.59 27.9491C28.5503 28.1302 28.5104 28.3083 28.4554 28.4954C28.408 28.6576 28.3067 28.7336 28.1364 28.7336H28.1088C27.9904 28.7336 27.8228 28.7123 27.6099 28.6706C27.2323 28.597 26.8091 28.5291 26.2705 28.5291C25.956 28.5291 25.6307 28.5561 25.3036 28.6102C24.6346 28.7219 24.0666 29.1226 23.4652 29.548C22.5914 30.1661 21.6894 30.8039 20.2833 30.8039C20.222 30.8039 20.1623 30.8018 20.1019 30.799C20.0634 30.8023 20.0235 30.8039 19.9835 30.8039C18.5781 30.8039 17.676 30.1664 16.8037 29.5492C16.2015 29.1238 15.6329 28.7219 14.963 28.6102C14.6362 28.5561 14.3109 28.5291 13.997 28.5291C13.4302 28.5291 12.9838 28.6165 12.6573 28.6802C12.4594 28.7189 12.2881 28.7523 12.1581 28.7523C12.0223 28.7523 11.8754 28.7228 11.8114 28.5045C11.7559 28.3149 11.7159 28.132 11.6769 27.9542C11.5771 27.4982 11.5066 27.2176 11.3155 27.1882C9.0864 26.844 8.44809 26.3742 8.30602 26.041C8.28619 25.9936 8.27418 25.9455 8.27177 25.8987C8.26456 25.7704 8.35498 25.6572 8.48174 25.6367C11.9082 25.0726 13.4449 21.5699 13.5089 21.4212C13.5104 21.4176 13.5122 21.4134 13.5143 21.4095C13.7239 20.9845 13.7648 20.6153 13.6368 20.3128C13.4016 19.7589 12.6345 19.5153 12.1268 19.3543C12.0028 19.3147 11.885 19.2777 11.7919 19.2408C10.7787 18.8404 10.6946 18.4294 10.7346 18.2201C10.8025 17.8629 11.2795 17.6139 11.6655 17.6139C11.7709 17.6139 11.864 17.6328 11.9424 17.6695C12.3984 17.8828 12.809 17.9912 13.1637 17.9912C13.6534 17.9912 13.8672 17.7854 13.8934 17.7584C13.8804 17.5265 13.8651 17.2841 13.8495 17.0339C13.7474 15.4142 13.6206 13.4008 14.1337 12.2519C15.6698 8.80771 18.9271 8.53977 19.8892 8.53977C19.9139 8.53977 20.311 8.53557 20.311 8.53557H20.3677C21.3316 8.53557 24.5968 8.8035 26.1335 12.2498C26.6462 13.3993 26.5195 15.4142 26.4174 17.033L26.4129 17.1036C26.3987 17.3289 26.3849 17.5478 26.3735 17.7578C26.3981 17.783 26.5949 17.972 27.0385 17.9891H27.0388C27.3768 17.9762 27.7643 17.8683 28.1899 17.6695C28.3143 17.6109 28.453 17.5986 28.547 17.5986C28.6915 17.5986 28.8372 17.6268 28.9583 17.677L28.9661 17.6803C29.31 17.8023 29.5356 18.0432 29.5404 18.2955C29.5449 18.5328 29.3635 18.8896 28.475 19.2408C28.3827 19.2771 28.265 19.3144 28.14 19.354C27.6318 19.515 26.8652 19.7589 26.63 20.3125C26.5018 20.6153 26.5426 20.9839 26.7526 21.4089C26.7544 21.4131 26.7565 21.417 26.7583 21.4212C26.822 21.5699 28.3569 25.0714 31.7854 25.6364C31.9119 25.6572 32.0026 25.7704 31.9954 25.8981C31.9927 25.9461 31.981 25.9945 31.9606 26.0416Z" fill="#F4F4F4"/>
</g>
<defs>
<clipPath id="clip0_164_82">
<rect width="39.3713" height="39.3713" fill="white" transform="translate(0.485352)"/>
</clipPath>
</defs>
</svg>
