<svg width="40" height="40" viewBox="0 0 40 40" fill="none" xmlns="http://www.w3.org/2000/svg">
<g clip-path="url(#clip0_164_72)">
<path d="M19.6856 0C8.81393 0 0 8.81393 0 19.6856C0 30.5573 8.81393 39.3713 19.6856 39.3713C30.5573 39.3713 39.3713 30.5573 39.3713 19.6856C39.3713 8.81393 30.5573 0 19.6856 0Z" fill="#F4F4F4"/>
<path d="M22.3076 18.4686L29.3808 10H27.7046L21.563 17.3532L16.6577 10H11L18.4178 21.1193L11 30H12.6762L19.162 22.2348L24.3423 30H30L22.3071 18.4686H22.3076ZM13.2802 11.2997H15.8547L27.7054 28.7594H25.1308L13.2802 11.2997Z" fill="#191919"/>
</g>
<defs>
<clipPath id="clip0_164_72">
<rect width="39.3713" height="39.3713" fill="white" transform="translate(0.371338)"/>
</clipPath>
</defs>
</svg>
