<svg width="41" height="40" viewBox="0 0 41 40" fill="none" xmlns="http://www.w3.org/2000/svg">
<g clip-path="url(#clip0_164_77)">
<circle cx="20.4283" cy="19.6856" r="19.6856" fill="#191919"/>
<path d="M17.9763 23.3737L24.3798 19.6856L17.9763 15.9976V23.3737Z" fill="#E4E4E4"/>
<path d="M20.4283 0C9.55789 0 0.742676 8.81522 0.742676 19.6856C0.742676 30.556 9.55789 39.3713 20.4283 39.3713C31.2987 39.3713 40.1139 30.556 40.1139 19.6856C40.1139 8.81522 31.2987 0 20.4283 0ZM32.7288 19.7058C32.7288 19.7058 32.7288 23.6981 32.2224 25.6232C31.9385 26.6769 31.1077 27.5078 30.0539 27.7914C28.1288 28.2981 20.4283 28.2981 20.4283 28.2981C20.4283 28.2981 12.7479 28.2981 10.8027 27.7712C9.74893 27.4877 8.91809 26.6565 8.63423 25.6028C8.12749 23.6981 8.12749 19.6856 8.12749 19.6856C8.12749 19.6856 8.12749 15.6936 8.63423 13.7685C8.91779 12.7147 9.76906 11.8635 10.8027 11.5799C12.7278 11.0732 20.4283 11.0732 20.4283 11.0732C20.4283 11.0732 28.1288 11.0732 30.0539 11.6C31.1077 11.8836 31.9385 12.7147 32.2224 13.7685C32.7492 15.6936 32.7288 19.7058 32.7288 19.7058Z" fill="#F4F4F4"/>
</g>
<defs>
<clipPath id="clip0_164_77">
<rect width="39.3713" height="39.3713" fill="white" transform="translate(0.742676)"/>
</clipPath>
</defs>
</svg>
